{
  "asset": {
    "version": "2.0",
    "generator": "webeditor3d fixture"
  },
  "scene": 0,
  "scenes": [
    {
      "name": "External Triangle Scene",
      "nodes": [0]
    }
  ],
  "nodes": [
    {
      "mesh": 0,
      "name": "External Triangle Node"
    }
  ],
  "meshes": [
    {
      "name": "External Triangle Mesh",
      "primitives": [
        {
          "attributes": {
            "POSITION": 0
          },
          "material": 0
        }
      ]
    }
  ],
  "materials": [
    {
      "name": "External Material",
      "pbrMetallicRoughness": {
        "baseColorFactor": [0.2, 0.6, 0.85, 1],
        "metallicFactor": 0,
        "roughnessFactor": 1
      }
    }
  ],
  "buffers": [
    {
      "byteLength": 36,
      "uri": "triangle.bin"
    }
  ],
  "bufferViews": [
    {
      "buffer": 0,
      "byteOffset": 0,
      "byteLength": 36
    }
  ],
  "accessors": [
    {
      "bufferView": 0,
      "componentType": 5126,
      "count": 3,
      "type": "VEC3",
      "min": [0, 0, 0],
      "max": [1, 1, 0]
    }
  ]
}
